<svg xmlns="http://www.w3.org/2000/svg" width="128" height="128" viewBox="0 0 128 128" fill="none">
  <rect x="14" y="14" width="100" height="100" rx="22" fill="#121A33"/>
  <rect x="14" y="14" width="100" height="100" rx="22" stroke="rgba(232,236,255,0.14)" stroke-width="2"/>
  <path d="M40 44h22a6 6 0 0 1 6 6v10a6 6 0 0 1-6 6H40a6 6 0 0 1-6-6V50a6 6 0 0 1 6-6Z" fill="#6AA9FF"/>
  <path d="M66 62h22a6 6 0 0 1 6 6v10a6 6 0 0 1-6 6H66a6 6 0 0 1-6-6V68a6 6 0 0 1 6-6Z" fill="#35D07F"/>
  <path d="M52 66l14 6" stroke="rgba(232,236,255,0.72)" stroke-width="4" stroke-linecap="round"/>
  <path d="M66 72l-6 10" stroke="rgba(232,236,255,0.72)" stroke-width="4" stroke-linecap="round"/>
</svg>

